<!-- icon666.com - MILLIONS vector ICONS FREE --><svg enable-background="new 0 0 64 64" viewBox="0 0 64 64" xmlns="http://www.w3.org/2000/svg"><g id="_x32_5-Repeat"><g><path d="m49 29.0000954c-.5527344 0-1 .4472656-1 1v5c0 3.859375-3.140625 7-7 7h-17v-5c0-.3789063-.2138672-.7246094-.5527344-.8945313-.3378906-.1679688-.7441406-.1328125-1.046875.0947266l-8 6c-.2519531.1884765-.4003906.4853515-.4003906.7998047s.1484375.6113281.4003906.7998047l8 6c.1757813.1328125.3876953.2001953.5996094.2001953.1523438 0 .3056641-.0351563.4472656-.1054688.3388672-.1699219.5527344-.515625.5527344-.8945312v-5h17c4.9628906 0 9-4.0371094 9-9v-5c0-.5527344-.4472656-1-1-1zm-27 18-5.3330078-4 5.3330078-4z" fill="#000000" style="fill: rgb(255, 255, 255);"></path><path d="m15 35.0000954c.5527344 0 1-.4472656 1-1v-5c0-3.859375 3.140625-7 7-7h17v5c0 .3789063.2138672.7246094.5527344.8945313.1416015.0703124.2949219.1054687.4472656.1054687.2119141 0 .4238281-.0673828.5996094-.2001953l8-6c.2519531-.1884766.4003906-.4853516.4003906-.7998047s-.1484375-.6113281-.4003906-.7998047l-8-6.000001c-.3017578-.2285156-.7089844-.2636719-1.046875-.0947266-.3388672.1699219-.5527344.5156251-.5527344.8945313v5.000001h-17c-4.9628906 0-9 4.0371094-9 9v5c0 .5527343.4472656 1 1 1zm27-18 5.3330078 4-5.3330078 4z" fill="#000000" style="fill: rgb(255, 255, 255);"></path><path d="m32.75 38.0000954c.5527344 0 1-.4472656 1-1v-10c0-.5527344-.4472656-1-1-1h-2c-.5527344 0-1 .4472656-1 1s.4472656 1 1 1h1v9c0 .5527343.4472656 1 1 1z" fill="#000000" style="fill: rgb(255, 255, 255);"></path></g></g></svg>